<svg xmlns="http://www.w3.org/2000/svg" viewBox="0 0 277.35 321.23"><defs><style>.a{fill:#7556cc;}</style></defs><path class="a" d="M268.51,188.91c4,1.93,1.19,20.05-12.65,18.75-14.35-1.34-7.15-12.88,4.75-30.72,29.13-43.68-10.11-79.11-42.27-68.5-9.22,3-21.4,11.12-30.17,19.16C228.87,61.38,200.71-.16,141.49,0h-1c-7.35.17-63.07,5.26-64.66,67.82C75.24,92,86.34,107.2,95.79,128.42c11.41,25.6,9.1,53.75-27.11,49.18,9.63-1.8,15.8-5.41,19.65-9.86-4.54-.41-9.63-3.46-14.33-9.77-6.38-8.56-7.1-12-14-15.95C31.34,125.84,2,154.4,9.36,185.59c8.1,34.36,33.82,37.08,24.47,56.22s-40.12,4.88-25.18-21C-4,231.36-.62,248.88,5.33,257.74,14.25,271,43,274.7,55.4,257c-8.34-19.59-17.3-53.83,17.85-61.17,41.62-8.7,29.19-7.1,37.57-15.15-5.2,21.59-33.81,11.28-45.67,26.1-13.35,16.7-4.24,39.6-3.77,40.75,4.58,10.23,13.46,21.4,27.55,32.39,4.27,5,8,10.93,6.78,18.34-1.77,10.87-19.28,11.13-19.77-3.27-1.55,5.76-.81,17,11.91,19.56s30.52-15.57,25.82-34-6.64-20.3-6.08-31.18c1.06-20.54,23.77-31.73,31.08-32-36.67,20.8-23.37,104,33.28,104,47.26,0,44.4-54.55,16.19-50.51-17.64,2.53-17.41,14.71-17.41,14.71s8.26-2.9,14.8-.91c10.41,3.18,12,17.27.72,23.34-13.89,7.48-36.47-6-19.07-37.63,1.43-2.6,3.66-4.55,5.73-6.53-6.55-1.37-15.89-6.21-18.44-22.48-3.27-20.8,9.39-37.31,1.37-37.79,5.64-12.33,22.91-15,15.39,1-2.67,5.67-29.71,39.1,4.51,56.33,26.89,7.41,68.27-21.69,70.64,1.77-1.81,9.82-12.36,14.05-17.51,11.86,3.33,1.73,14.16,6.32,23.23-1.62,19.43-17,7.27-45.73-23.35-40.86-36.49,5.8-39.77-9.61-23.24-24.17,13.65-12,17.32-24.46,14.92-34.89a3.1,3.1,0,0,1-.57-1c-3.75-13.13-26.22-35.52-60-5.23,4.59-5.24,16.18-16.29,31.93-18.61,9.93-1.46,23,1,30.26,9,5.13-9.62,11.6-5.95,13-.45,1.61,6.23-20.79,40.71-7.34,55.08s37.57,9.28,45.1-.32C282.76,198.61,274,190.84,268.51,188.91ZM18.2,164.44c.77-2.83,3.16-4.65,5.35-4.06s3.33,3.36,2.57,6.2-3.16,4.65-5.35,4.06S17.44,167.28,18.2,164.44Zm5.93,29.38c-3.38.77-6.92-2.16-7.91-6.55s1-8.55,4.33-9.31,6.92,2.17,7.91,6.55S27.51,193.06,24.13,193.82Zm17.36-3c-.49,2-2.18,3.4-3.76,3s-2.46-2.35-2-4.4,2.18-3.4,3.76-3S42,188.81,41.49,190.86Zm36.83,25.83c1-1.06,2.54-1.27,3.36-.47a2.45,2.45,0,0,1-.41,3.37c-1,1.06-2.54,1.27-3.36.47S77.28,217.75,78.32,216.69Zm-9.64,22.58c-1.78,0-3.21-1.87-3.22-4.17s1.44-4.16,3.22-4.17,3.21,1.87,3.21,4.17S70.45,239.26,68.68,239.27ZM78,256.09c-2,1.09-4.68-.09-6.08-2.62s-1-5.45,1-6.54,4.68.09,6.08,2.62S79.94,255,78,256.09Zm1.7-15.39a2.43,2.43,0,0,1,1.16-3.18c1.25-.79,2.77-.65,3.38.32s.08,2.39-1.17,3.18S80.29,241.66,79.69,240.7Zm6.12,28.38c-1,.56-2.39,0-3.13-1.31a2.14,2.14,0,1,1,3.13,1.31Zm120.08-96.69c1.66-1,4.07-.09,5.39,2.07s1,4.72-.63,5.73-4.07.09-5.39-2.06S204.23,173.41,205.89,172.39Zm-4.24,13.19c1.88.5,2.87,2.89,2.21,5.33s-2.71,4-4.59,3.49-2.87-2.9-2.21-5.33S199.77,185.07,201.65,185.58Zm-6.8-22.26c3.1,0,5.61,1.94,5.61,4.33S198,172,194.85,172s-5.62-1.94-5.62-4.33S191.75,163.32,194.85,163.32Zm-84.5-66.43s9.87,8.68,22.69,10.41C127.86,119.44,110.35,119.73,110.35,96.89ZM130.42,251.8c.55-2.23,2.39-3.69,4.12-3.27s2.67,2.58,2.12,4.82-2.4,3.7-4.12,3.27S129.87,254,130.42,251.8Zm-.18,24.66c-2.61-.83-3.86-4.24-2.8-7.62s4.05-5.46,6.66-4.64,3.86,4.23,2.8,7.62S132.85,277.28,130.24,276.46Zm11.57,25.88c-1.11-.28-1.71-1.67-1.34-3.11a2.43,2.43,0,0,1,2.67-2.09c1.1.28,1.7,1.67,1.34,3.11S142.92,302.62,141.81,302.34ZM138.12,290c-1.52,1.73-3.83,2.19-5.17,1s-1.19-3.52.33-5.25,3.82-2.19,5.16-1S139.63,288.26,138.12,290Zm12.43,20.21c-1.13-.19-1.84-1.53-1.6-3s1.37-2.49,2.49-2.3a2.44,2.44,0,0,1,1.6,3C152.79,309.36,151.68,310.39,150.55,310.2Zm.56-202.9c12.82-1.73,22.69-10.41,22.69-10.41C173.8,119.73,156.29,119.44,151.11,107.3Zm22.4-67c-12.19-12.68-31.9-21.6-61.35-12.91,0,0,18.66-12.82,40.79-8.94,10,1.76,19.25,7.71,26,15.87Zm13.06,6.47c5,5.82,7.27,15.92,3.49,31.83-.74-4.24-3.14-17.89-6.13-23.66Zm73.09,86c1.71-.49,3.61.9,4.25,3.11s-.22,4.4-1.93,4.9-3.6-.9-4.24-3.11S258,133.28,259.66,132.78ZM256.05,155c1-1.05,2.54-1.26,3.36-.46s.63,2.31-.41,3.37-2.54,1.26-3.36.46S255,156,256.05,155Zm-24.56-34.36c-2.29-.23-4-1.84-3.84-3.61s2.17-3,4.46-2.79,4,1.84,3.84,3.6S233.78,120.83,231.49,120.61Zm10.34-1.91c1.88-2,5.49-1.64,8.08.79s3.17,6,1.3,8-5.49,1.65-8.08-.78S240,120.7,241.83,118.7Zm6.29,18.84c1.42-.55,3.15.51,3.86,2.35s.14,3.79-1.28,4.34-3.16-.5-3.88-2.34S246.69,138.1,248.12,137.54Z"/></svg>